<mxfile host="Electron" agent="Mozilla/5.0 (Windows NT 10.0; Win64; x64) AppleWebKit/537.36 (KHTML, like Gecko) draw.io/26.1.1 Chrome/132.0.6834.210 Electron/34.3.3 Safari/537.36" version="26.1.1">
  <diagram name="Domain" id="n9TnFoyhDSMAKVt4e_JT">
    <mxGraphModel dx="1115" dy="669" grid="1" gridSize="10" guides="1" tooltips="1" connect="1" arrows="1" fold="1" page="1" pageScale="1" pageWidth="1654" pageHeight="2336" math="0" shadow="0">
      <root>
        <mxCell id="0" />
        <mxCell id="1" parent="0" />
        <mxCell id="quaU6f-oFL5zI1lORNeQ-1" value="Cliente" style="rounded=0;whiteSpace=wrap;html=1;" vertex="1" parent="1">
          <mxGeometry x="490" y="120" width="120" height="60" as="geometry" />
        </mxCell>
        <mxCell id="quaU6f-oFL5zI1lORNeQ-7" style="edgeStyle=orthogonalEdgeStyle;rounded=0;orthogonalLoop=1;jettySize=auto;html=1;entryX=0.25;entryY=1;entryDx=0;entryDy=0;" edge="1" parent="1" source="quaU6f-oFL5zI1lORNeQ-2" target="quaU6f-oFL5zI1lORNeQ-1">
          <mxGeometry relative="1" as="geometry" />
        </mxCell>
        <mxCell id="quaU6f-oFL5zI1lORNeQ-2" value="Pessoa Física" style="rounded=0;whiteSpace=wrap;html=1;" vertex="1" parent="1">
          <mxGeometry x="370" y="330" width="120" height="60" as="geometry" />
        </mxCell>
        <mxCell id="quaU6f-oFL5zI1lORNeQ-6" style="edgeStyle=orthogonalEdgeStyle;rounded=0;orthogonalLoop=1;jettySize=auto;html=1;entryX=0.75;entryY=1;entryDx=0;entryDy=0;" edge="1" parent="1" source="quaU6f-oFL5zI1lORNeQ-3" target="quaU6f-oFL5zI1lORNeQ-1">
          <mxGeometry relative="1" as="geometry" />
        </mxCell>
        <mxCell id="quaU6f-oFL5zI1lORNeQ-3" value="Pessoa Jurídica" style="rounded=0;whiteSpace=wrap;html=1;" vertex="1" parent="1">
          <mxGeometry x="610" y="330" width="120" height="60" as="geometry" />
        </mxCell>
        <mxCell id="quaU6f-oFL5zI1lORNeQ-5" style="edgeStyle=orthogonalEdgeStyle;rounded=0;orthogonalLoop=1;jettySize=auto;html=1;exitX=0;exitY=0.5;exitDx=0;exitDy=0;entryX=1;entryY=0.5;entryDx=0;entryDy=0;" edge="1" parent="1" source="quaU6f-oFL5zI1lORNeQ-4" target="quaU6f-oFL5zI1lORNeQ-1">
          <mxGeometry relative="1" as="geometry" />
        </mxCell>
        <mxCell id="quaU6f-oFL5zI1lORNeQ-4" value="Endereço" style="rounded=0;whiteSpace=wrap;html=1;" vertex="1" parent="1">
          <mxGeometry x="730" y="120" width="120" height="60" as="geometry" />
        </mxCell>
      </root>
    </mxGraphModel>
  </diagram>
</mxfile>
